/* XPM */
static char *backlightB_on_xpm[] = {
/* width height num_colors chars_per_pixel */
"    58    58        5            1",
/* colors */
". c None",
"# c #020202",
"a c #6ec63b s Back0",
"b c #dedede",
"c c #6cb237 s Back1",
/* pixels */
"..######################################################..",
".#aaaaaaaaaaaaaaaaaaaaaaaaaaaaaaaaaaaaaaaaaaaaaaaaaaaaaa#.",
"#aaaaaaaaaaaaaaaaaaaaaaaaaaaaaaaaaaaaaaaaaaaaaaaaaaaaaaaab",
"#aaaaaaaaaaaaaaaaaaaaaaaaaaaaaaaaaaaaaaaaaaaaaaaaaaaaaaaab",
"#aaaaaaaaaaaaaaaaaaaaaaaaaaaaaaaaaaaaaaaaaaaaaaaaaaaaaaaab",
"#aaaaaccccaaaaccccaaaaaaccccaaaaccccaaaaaaccccaaaaccccaaab",
"#aaaaccccccaaccccccaaaaccccccaaccccccaaaaccccccaaccccccaab",
"#aaaaccccccaaccccccaaaaccccccaaccccccaaaaccccccaaccccccaab",
"#aaaaccccccaaccccccaaaaccccccaaccccccaaaaccccccaaccccccaab",
"#aaaaccccccaaccccccaaaaccccccaaccccccaaaaccccccaaccccccaab",
"#aaaaaccccaaaaccccaaaaaaccccaaaaccccaaaaaaccccaaaaccccaaab",
"#aaaaaaaaaaaaaaaaaaaaaaaaaaaaaaaaaaaaaaaaaaaaaaaaaaaaaaaab",
"#aaaaaaaaaaaaaaaaaaaaaaaaaaaaaaaaaaaaaaaaaaaaaaaaaaaaaaaab",
"#aaaaaccccaaaaccccaaaaaaccccaaaaccccaaaaaaccccaaaaccccaaab",
"#aaaaccccccaaccccccaaaaccccccaaccccccaaaaccccccaaccccccaab",
"#aaaaccccccaaccccccaaaaccccccaaccccccaaaaccccccaaccccccaab",
"#aaaaccccccaaccccccaaaaccccccaaccccccaaaaccccccaaccccccaab",
"#aaaaccccccaaccccccaaaaccccccaaccccccaaaaccccccaaccccccaab",
"#aaaaaccccaaaaccccaaaaaaccccaaaaccccaaaaaaccccaaaaccccaaab",
"#aaaaaaaaaaaaaaaaaaaaaaaaaaaaaaaaaaaaaaaaaaaaaaaaaaaaaaaab",
"#aaaaaaaaaaaaaaaaaaaaaaaaaaaaaaaaaaaaaaaaaaaaaaaaaaaaaaaab",
"#aaaaaccccaaaaccccaaaaaaccccaaaaccccaaaaaaccccaaaaccccaaab",
"#aaaaccccccaaccccccaaaaccccccaaccccccaaaaccccccaaccccccaab",
"#aaaaccccccaaccccccaaaaccccccaaccccccaaaaccccccaaccccccaab",
"#aaaaccccccaaccccccaaaaccccccaaccccccaaaaccccccaaccccccaab",
"#aaaaccccccaaccccccaaaaccccccaaccccccaaaaccccccaaccccccaab",
"#aaaaaccccaaaaccccaaaaaaccccaaaaccccaaaaaaccccaaaaccccaaab",
"#aaaaaaaaaaaaaaaaaaaaaaaaaaaaaaaaaaaaaaaaaaaaaaaaaaaaaaaab",
"#aaaaaaaaaaaaaaaaaaaaaaaaaaaaaaaaaaaaaaaaaaaaaaaaaaaaaaaab",
"#aaaaaccccaaaaccccaaaaaaccccaaaaccccaaaaaaccccaaaaccccaaab",
"#aaaaccccccaaccccccaaaaccccccaaccccccaaaaccccccaaccccccaab",
"#aaaaccccccaaccccccaaaaccccccaaccccccaaaaccccccaaccccccaab",
"#aaaaccccccaaccccccaaaaccccccaaccccccaaaaccccccaaccccccaab",
"#aaaaccccccaaccccccaaaaccccccaaccccccaaaaccccccaaccccccaab",
"#aaaaaccccaaaaccccaaaaaaccccaaaaccccaaaaaaccccaaaaccccaaab",
"#aaaaaaaaaaaaaaaaaaaaaaaaaaaaaaaaaaaaaaaaaaaaaaaaaaaaaaaab",
"#aaaaaaaaaaaaaaaaaaaaaaaaaaaaaaaaaaaaaaaaaaaaaaaaaaaaaaaab",
"#aaaaaaaaaaaaaaaaaaaaaaaaaaaaaaaaaaaaaaaaaaaaaaaaaaaaaaaab",
"#aaaaaaaaaaaaaccccaaaaaaaccccaaccccaaaaaaaaccccaaccccaaaab",
"#aaaaaaaaaaaaaccccaaaaaaaccccaaccccaaaaaaaaccccaaccccaaaab",
"#aaaaaaaaaaaaaccccaaaaaaaccccaaccccaaaaaaaaccccaaccccaaaab",
"#aaaaaaaaaaaaaaaaaaaaaaaaaaaaaaaaaaaaaaaaaaaaaaaaaaaaaaaab",
"#aaaaaaaaaaaaaccccaaaaaaaccccaaccccaaaaaaaaccccaaccccaaaab",
"#aaaaaaaaaaaaaccccaaaaaaaccccaaccccaaaaaaaaccccaaccccaaaab",
"#aaaaaaaaaaaaaccccaaaaaaaccccaaccccaaaaaaaaccccaaccccaaaab",
"#aaaaaaaaaaaaaaaaaaaaaaaaaaaaaaaaaaaaaaaaaaaaaaaaaaaaaaaab",
"#aaaaaaaaaaaaaccccaaaaaaaccccaaccccaaaaaaaaccccaaccccaaaab",
"#aaaaaaaaaaaaaccccaaaaaaaccccaaccccaaaaaaaaccccaaccccaaaab",
"#aaaaaaaaaaaaaccccaaaaaaaccccaaccccaaaaaaaaccccaaccccaaaab",
"#aaaaaaaaaaaaaaaaaaaaaaaaaaaaaaaaaaaaaaaaaaaaaaaaaaaaaaaab",
"#aaaaaaaaaaaaaccccaaaaaaaccccaaccccaaaaaaaaccccaaccccaaaab",
"#aaaaaaaaaaaaaccccaaaaaaaccccaaccccaaaaaaaaccccaaccccaaaab",
"#aaaaaaaaaaaaaccccaaaaaaaccccaaccccaaaaaaaaccccaaccccaaaab",
"#aaaaaaaaaaaaaaaaaaaaaaaaaaaaaaaaaaaaaaaaaaaaaaaaaaaaaaaab",
"#aaaaaaaaaaaaaaaaaaaaaaaaaaaaaaaaaaaaaaaaaaaaaaaaaaaaaaaab",
"#aaaaaaaaaaaaaaaaaaaaaaaaaaaaaaaaaaaaaaaaaaaaaaaaaaaaaaaab",
".#aaaaaaaaaaaaaaaaaaaaaaaaaaaaaaaaaaaaaaaaaaaaaaaaaaaaaab.",
"..bbbbbbbbbbbbbbbbbbbbbbbbbbbbbbbbbbbbbbbbbbbbbbbbbbbbbb.."
};
