/* XPM */
static char *backlightI_on_xpm[] = {
/* width height num_colors chars_per_pixel */
"    58    58        6            1",
/* colors */
". c None",
"# c #020202",
"a c #6ec63b s Back0",
"b c #dedede",
"c c #6cb237 s Back1",
"d c #3e463e",
/* pixels */
"..######################################################..",
".#aaaaaaaaaaaaaaaaaaaaaaaaaaaaaaaaaaaaaaaaaaaaaaaaaaaaaa#.",
"#aaaaaaaaaaaaaaaaaaaaaaaaaaaaaaaaaaaaaaaaaaaaaaaaaaaaaaaab",
"#aaaaaaaaaaaaaaaaaaaaaaaaaaaaaaaaaaaaaaaaaaaaaaaaaaaaaaaab",
"#aaaaaaaaaaaaaaaaaaaaaaaaaaaaaaaaaaaaaaaaaaaaaaaaaaaaaaaab",
"#aaaaaaaaaaaaaaaaaaaaaaaaaaaaaaaaaaaaaaaaaaaaaaaaaaaaaaaab",
"#aaaaaaaaaaaaaaaaaaaaaccccccaaaaaaccccccaaaaaaccccccaaaaab",
"#aaaaaaaaaaaaaaaaaaacaaccccaacaacaaccccaacaacaaccccaacaaab",
"#aaaaaaaaaaaaaaaaaaaccaaaaaaccaaccaaaaaaccaaccaaaaaaccaaab",
"#aaaaaaaaaaaaaaaaaaaccaaaaaaccaaccaaaaaaccaaccaaaaaaccaaab",
"#aaaaaaaaaaaaaaaaaaaccaaaaaaccaaccaaaaaaccaaccaaaaaaccaaab",
"#aaaaaaaaaaaaaaaaaaaccaaaaaaccaaccaaaaaaccaaccaaaaaaccaaab",
"#aaaaaaaaaaaaaaaaaaaccaaaaaaccaaccaaaaaaccaaccaaaaaaccaaab",
"#aaaaaaaaa#####aaaaaccaaaaaaccaaccaaaaaaccaaccaaaaaaccaaab",
"#aaaaaaaa#aaaaa#aaaaccaaaaaaccaaccaaaaaaccaaccaaaaaaccaaab",
"#aaaaaaaa#a###a#aaaacaaccccaacaacaaccccaacaacaaccccaacaaab",
"#aaaaaaaa#a#a#a#aaaaaaccccccaaaaaaccccccaaaaaaccccccaaaaab",
"#aaaaaaaa#a###a#aaaacaaaaaaaacaacaaaaaaaacaacaaaaaaaacaaab",
"#aaaaaaaa#aaaa#aaaaaccaaaaaaccaaccaaaaaaccaaccaaaaaaccaaab",
"#aaaaaaaa#aaaaaaaaaaccaaaaaaccaaccaaaaaaccaaccaaaaaaccaaab",
"#aaaaaaaaa#####aaaaaccaaaaaaccaaccaaaaaaccaaccaaaaaaccaaab",
"#aaaaaaaaaaaaaaaaaaaccaaaaaaccaaccaaaaaaccaaccaaaaaaccaaab",
"#aaaaaaaaaaaaaaaaaaaccaaaaaaccaaccaaaaaaccaaccaaaaaaccaaab",
"#aaaaaaaaaaaaaaaaaaaccaaaaaaccaaccaaaaaaccaaccaaaaaaccaaab",
"#aaaaaaaaaaaaaaaaaaacaaccccaacaacaaccccaacaacaaccccaacaaab",
"#aaaaaaaaaaaaaaaaaaaaaccccccaaaaaaccccccaaaaaaccccccaaaaab",
"#aaaaaaaaaaaaaaaaaaaaaaaaaaaaaaaaaaaaaaaaaaaaaaaaaaaaaaaab",
"#aaaaaaaaaaaaaaaaaaaaaaaaaaaaaaaaaaaaaaaaaaaaaaaaaaaaaaaab",
"#aaaaaaaaaaaaaaaaaaaaaaaaaaaaaaaaaaaaaaaaaaaaaaaaacccaaaab",
"#aaaaaaaaaaaaaaaaaaaaaaaaaaaaaaaaaaaaaaaaaaaaaaaacaaacaaab",
"#aaaaaaaaaaaaaaaaaaaaaaaaaaaaaaaaaaaaaaaaaaaaaaaacaaacaaab",
"#aaaaaaaaaaaaaaaaaaaaaaaaaaaaaaaaaaaaaaaaaaaaaaaacaaacaaab",
"#aaaaaaaaaaaaaaaaaaaaaaaaaaaaaaaaaaaaaaaaaaaaaaaaacccaaaab",
"#aaaaaaaaaaaaaaaaaaaaaaaaaaaaaaaaaaaaaaaaaaaaaaaacaaacaaab",
"#aaaaaaaaaaaaaaaaaaaaaaaaaaaaaaaaaaaaaaaaaaaaaaaacaaacaaab",
"#aaaaaaaaaaaaaaaaaaaaaaaaaaaaaaaaaaaaaaaaaaaaddaacaaacaaab",
"#aaaaaaaaaaaaaaaaaaaaaaaaaaaaaaaaaaaaaaaaaaaaddcaacccaaaab",
"#aaaaaaaaaaaaaaaaaaaaaaaaaaaaaaaaaaaaaaaaaaaaaccaaaaaaaaab",
"#aaaaaaaaaaaaaaaaaaaaaaaaaaaaaaaaaaaaaaaaaaaaaaaaaaaaaaaab",
"#aaaaaaaaaaaaaaaaaaaaaaaaaaaaaaaaaaaaaaaaaaaaaaaaaaaaaaaab",
"#aaaadddddddddddddddddddddddddddddddddddddddddddddddddaaab",
"#aaaadddddddddddddddddddddddddddddddddddddddddddddddddcaab",
"#aaaaacccccccccccccccccccccccccccccccccccccccccccccccccaab",
"#aaaaaaaaaaaaaaaaaaaaaaaaaaaaaaaaaaaaaaaaaaaaaaaaaaaaaaaab",
"#aaaaaaaaaaaaaaaaaaaaaaaaaaaaaaaaaaaaaaaaaaaaaaaaaaaaaaaab",
"#aaaaaccaccaccaccaccaccaccaccaccaccaccaccaccaccaccaccaaaab",
"#aaaaaaaaaaaaaaaaaaaaaaaaaaaaaaaaaaaaaaaaaaaaaaaaaaaaaaaab",
"#aaaaaccaccaccaccaccaccaccaccaccaccaccaccaccaccaccaccaaaab",
"#aaaaaaaaaaaaaaaaaaaaaaaaaaaaaaaaaaaaaaaaaaaaaaaaaaaaaaaab",
"#aaaaaccaccaccaccaccaccaccaccaccaccaccaccaccaccaccaccaaaab",
"#aaaaaaaaaaaaaaaaaaaaaaaaaaaaaaaaaaaaaaaaaaaaaaaaaaaaaaaab",
"#aaaaaccaccaccaccaccaccaccaccaccaccaccaccaccaccaccaccaaaab",
"#aaaaaaaaaaaaaaaaaaaaaaaaaaaaaaaaaaaaaaaaaaaaaaaaaaaaaaaab",
"#aaaaaccaccaccaccaccaccaccaccaccaccaccaccaccaccaccaccaaaab",
"#aaaaaaaaaaaaaaaaaaaaaaaaaaaaaaaaaaaaaaaaaaaaaaaaaaaaaaaab",
"#aaaaaaaaaaaaaaaaaaaaaaaaaaaaaaaaaaaaaaaaaaaaaaaaaaaaaaaab",
".#aaaaaaaaaaaaaaaaaaaaaaaaaaaaaaaaaaaaaaaaaaaaaaaaaaaaaab.",
"..bbbbbbbbbbbbbbbbbbbbbbbbbbbbbbbbbbbbbbbbbbbbbbbbbbbbbb.."
};
