/* XPM */
static char *backlightB_color_off_xpm[] = {
/* width height num_colors chars_per_pixel */
"    58    58        6            1",
/* colors */
". c None",
"# c #020202",
"c c #dedede",
"d c #7c827c",
"e c #000000", /* black */
"f c #004455 s Back1", /* dark blue */
/* pixels */
"..######################################################..",
".########################################################.",
"###eeeeeeeeeeeeeeeeeeeeeeeeeeeeeeeeeeeeeeeeeeeeeeeeeeeee#c",
"##eeeeeeeeeeeeeeeeeeeeeeeeeeeeeeeeeeeeeeeeeeeeeeeeeeeeee#c",
"##eeeeeeeeeeeeeeeeeeeeeeeeeeeeeeeeeeeeeeeeeeeeeeeeeeeeee#c",
"##eeeeeeeeeeeeeeeeeeeeeeeeeeeeeeeeeeeeeeeeeeeeeeeeeeeeee#c",
"##eeeeeeeeeeeeeeeeeeeeeeeeeeeeeeeeeeeeeeeeeeeeeeeeeeeeee#c",
"##eeeeeeeeeeeeeeeeeeeeeeeeeeeeeeeeeeeeeeeeeeeeeeeeeeeeee#c",
"##eeeeeeeeeeeeeeeeeeeeeeeeeeeeeeeeeeeeeeeeeeeeeeeeeeeeee#c",
"##eeeeeeeeeeeeeeeeeeeeeeeeeeeeeeeeeeeeeeeeeeeeeeeeeeeeee#c",
"##eeeeeeeeeeeeeeeeeeeeeeeeeeeeeeeeeeeeeeeeeeeeeeeeeeeeee#c",
"##eeeeeeeeeeeeeeeeeeeeeeeeeeeeeeeeeeeeeeeeeeeeeeeeeeeeee#c",
"##eeeeeeeeeeeeeeeeeeeeeeeeeeeeeeeeeeeeeeeeeeeeeeeeeeeeee#c",
"##eeeeeeeeeeeeeeeeeeeeeeeeeeeeeeeeeeeeeeeeeeeeeeeeeeeeee#c",
"##eeeeeeeeeeeeeeeeeeeeeeeeeeeeeeeeeeeeeeeeeeeeeeeeeeeeee#c",
"##eeeeeeeeeeeeeeeeeeeeeeeeeeeeeeeeeeeeeeeeeeeeeeeeeeeeee#c",
"##eeeffffffeeffffffeeeeffffffeeffffffeeeeffffffeeffffffe#c",
"##eeeffffffeeffffffeeeeffffffeeffffffeeeeffffffeeffffffe#c",
"##eeeffffffeeffffffeeeeffffffeeffffffeeeeffffffeeffffffe#c",
"##eeeffffffeeffffffeeeeffffffeeffffffeeeeffffffeeffffffe#c",
"##eeeffffffeeffffffeeeeffffffeeffffffeeeeffffffeeffffffe#c",
"##eeeffffffeeffffffeeeeffffffeeffffffeeeeffffffeeffffffe#c",
"##eeeeeeeeeeeeeeeeeeeeeeeeeeeeeeeeeeeeeeeeeeeeeeeeeeeeee#c",
"##eeeeeeeeeeeeeeeeeeeeeeeeeeeeeeeeeeeeeeeeeeeeeeeeeeeeee#c",
"##eeeffffffeeffffffeeeeffffffeeffffffeeeeffffffeeffffffe#c",
"##eeeffffffeeffffffeeeeffffffeeffffffeeeeffffffeeffffffe#c",
"##eeeffffffeeffffffeeeeffffffeeffffffeeeeffffffeeffffffe#c",
"##eeeffffffeeffffffeeeeffffffeeffffffeeeeffffffeeffffffe#c",
"##eeeffffffeeffffffeeeeffffffeeffffffeeeeffffffeeffffffe#c",
"##eeeffffffeeffffffeeeeffffffeeffffffeeeeffffffeeffffffe#c",
"##eeeeeeeeeeeeeeeeeeeeeeeeeeeeeeeeeeeeeeeeeeeeeeeeeeeeee#c",
"##eeeeeeeeeeeeeeeeeeeeeeeeeeeeeeeeeeeeeeeeeeeeeeeeeeeeee#c",
"##eeeffffffeeffffffeeeeffffffeeffffffeeeeffffffeeffffffe#c",
"##eeeffffffeeffffffeeeeffffffeeffffffeeeeffffffeeffffffe#c",
"##eeeffffffeeffffffeeeeffffffeeffffffeeeeffffffeeffffffe#c",
"##eeeffffffeeffffffeeeeffffffeeffffffeeeeffffffeeffffffe#c",
"##eeeffffffeeffffffeeeeffffffeeffffffeeeeffffffeeffffffe#c",
"##eeeffffffeeffffffeeeeffffffeeffffffeeeeffffffeeffffffe#c",
"##eeeeeeeeeeeeeeeeeeeeeeeeeeeeeeeeeeeeeeeeeeeeeeeeeeeeee#c",
"##eeeeeeeeeeeeeeeeeeeeeeeeeeeeeeeeeeeeeeeeeeeeeeeeeeeeee#c",
"##eeeffffffeeffffffeeeeffffffeeffffffeeeeffffffeeffffffe#c",
"##eeeffffffeeffffffeeeeffffffeeffffffeeeeffffffeeffffffe#c",
"##eeeffffffeeffffffeeeeffffffeeffffffeeeeffffffeeffffffe#c",
"##eeeffffffeeffffffeeeeffffffeeffffffeeeeffffffeeffffffe#c",
"##eeeffffffeeffffffeeeeffffffeeffffffeeeeffffffeeffffffe#c",
"##eeeffffffeeffffffeeeeffffffeeffffffeeeeffffffeeffffffe#c",
"##eeeeeeeeeeeeeeeeeeeeeeeeeeeeeeeeeeeeeeeeeeeeeeeeeeeeee#c",
"##eeeeeeeeeeeeeeeeeeeeeeeeeeeeeeeeeeeeeeeeeeeeeeeeeeeeee#c",
"##eeeeeeeeeeeeeeeeeeeeeeeeeeeeeeeeeeeeeeeeeeeeeeeeeeeeee#c",
"##eeeeeeeeeeeeeeeeeeeeeeeeeeeeeeeeeeeeeeeeeeeeeeeeeeeeee#c",
"##eeeeeeeeeeeeeeeeeeeeeeeeeeeeeeeeeeeeeeeeeeeeeeeeeeeeee#c",
"##eeeeeeeeeeeeeeeeeeeeeeeeeeeeeeeeeeeeeeeeeeeeeeeeeeeeee#c",
"##eeeeeeeeeeeeeeeeeeeeeeeeeeeeeeeeeeeeeeeeeeeeeeeeeeeeee#c",
"##eeeeeeeeeeeeeeeeeeeeeeeeeeeeeeeeeeeeeeeeeeeeeeeeeeeeee#c",
"##eeeeeeeeeeeeeeeeeeeeeeeeeeeeeeeeeeeeeeeeeeeeeeeeeeeeee#c",
"##eeeeeeeeeeeeeeeeeeeeeeeeeeeeeeeeeeeeeeeeeeeeeeeeeeeee##c",
".#######################################################c.",
"..cccccccccccccccccccccccccccccccccccccccccccccccccccccc.."
};
