/* XPM */
static char *backlightI_color_off_xpm[] = {
/* width height num_colors chars_per_pixel */
"    58    58        5            1",
/* colors */
". c None",
"# c #00B0EA s Back0", /* light blue */
"c c #dedede",
"e c #000000", /* black */
"f c #004455 s Back1", /* dark blue */
/* pixels */
"..eeeeeeeeeeeeeeeeeeeeeeeeeeeeeeeeeeeeeeeeeeeeeeeeeeeeee..",
".eeeeeeeeeeeeeeeeeeeeeeeeeeeeeeeeeeeeeeeeeeeeeeeeeeeeeeee.",
"eeeeeeeeeeeeeeeeeeeeeeeeeeeeeeeeeeeeeeeeeeeeeeeeeeeeeeeeec",
"eeeeeeeeeeeeeeeeeeeeeeeeeeeeeeeeeeeeeeeeeeeeeeeeeeeeeeeeec",
"eeeeeeeeeeeeeeeeeeeeeeeeeeeeeeeeeeeeeeeeeeeeeeeeeeeeeeeeec",
"eeeeeeeeeeeeeeeeeeeeeeeeeeeeeeeeeeeeeeeeeeeeeeeeeeeeeeeeec",
"eeeeeeeeeeeeeeeeeeeeeeffffffeeeeeeffffffeeeeeeffffffeeeeec",
"eeeeeeeeeeeeeeeeeeeefeeffffeefeefeeffffeefeefeeffffeefeeec",
"eeeeeeeeeeeeeeeeeeeeffeeeeeeffeeffeeeeeeffeeffeeeeeeffeeec",
"eeeeeeeeeeeeeeeeeeeeffeeeeeeffeeffeeeeeeffeeffeeeeeeffeeec",
"eeeeeeeeeeeeeeeeeeeeffeeeeeeffeeffeeeeeeffeeffeeeeeeffeeec",
"eeeeeeeeeeeeeeeeeeeeffeeeeeeffeeffeeeeeeffeeffeeeeeeffeeec",
"eeeeeeeeeeeeeeeeeeeeffeeeeeeffeeffeeeeeeffeeffeeeeeeffeeec",
"eeeeeeeeee#####eeeeeffeeeeeeffeeffeeeeeeffeeffeeeeeeffeeec",
"eeeeeeeee#eeeee#eeeeffeeeeeeffeeffeeeeeeffeeffeeeeeeffeeec",
"eeeeeeeee#e###e#eeeefeeffffeefeefeeffffeefeefeeffffeefeeec",
"eeeeeeeee#e#e#e#eeeeeeffffffeeeeeeffffffeeeeeeffffffeeeeec",
"eeeeeeeee#e###e#eeeefeeeeeeeefeefeeeeeeeefeefeeeeeeeefeeec",
"eeeeeeeee#eeee#eeeeeffeeeeeeffeeffeeeeeeffeeffeeeeeeffeeec",
"eeeeeeeee#eeeeeeeeeeffeeeeeeffeeffeeeeeeffeeffeeeeeeffeeec",
"eeeeeeeeee#####eeeeeffeeeeeeffeeffeeeeeeffeeffeeeeeeffeeec",
"eeeeeeeeeeeeeeeeeeeeffeeeeeeffeeffeeeeeeffeeffeeeeeeffeeec",
"eeeeeeeeeeeeeeeeeeeeffeeeeeeffeeffeeeeeeffeeffeeeeeeffeeec",
"eeeeeeeeeeeeeeeeeeeeffeeeeeeffeeffeeeeeeffeeffeeeeeeffeeec",
"eeeeeeeeeeeeeeeeeeeefeeffffeefeefeeffffeefeefeeffffeefeeec",
"eeeeeeeeeeeeeeeeeeeeeeffffffeeeeeeffffffeeeeeeffffffeeeeec",
"eeeeeeeeeeeeeeeeeeeeeeeeeeeeeeeeeeeeeeeeeeeeeeeeeeeeeeeeec",
"eeeeeeeeeeeeeeeeeeeeeeeeeeeeeeeeeeeeeeeeeeeeeeeeeeeeeeeeec",
"eeeeeeeeeeeeeeeeeeeeeeeeeeeeeeeeeeeeeeeeeeeeeeeeeefffeeeec",
"eeeeeeeeeeeeeeeeeeeeeeeeeeeeeeeeeeeeeeeeeeeeeeeeefeeefeeec",
"eeeeeeeeeeeeeeeeeeeeeeeeeeeeeeeeeeeeeeeeeeeeeeeeefeeefeeec",
"eeeeeeeeeeeeeeeeeeeeeeeeeeeeeeeeeeeeeeeeeeeeeeeeefeeefeeec",
"eeeeeeeeeeeeeeeeeeeeeeeeeeeeeeeeeeeeeeeeeeeeeeeeeefffeeeec",
"eeeeeeeeeeeeeeeeeeeeeeeeeeeeeeeeeeeeeeeeeeeeeeeeefeeefeeec",
"eeeeeeeeeeeeeeeeeeeeeeeeeeeeeeeeeeeeeeeeeeeeeeeeefeeefeeec",
"eeeeeeeeeeeeeeeeeeeeeeeeeeeeeeeeeeeeeeeeeeeee##eefeeefeeec",
"eeeeeeeeeeeeeeeeeeeeeeeeeeeeeeeeeeeeeeeeeeeee##feefffeeeec",
"eeeeeeeeeeeeeeeeeeeeeeeeeeeeeeeeeeeeeeeeeeeeeeffeeeeeeeeec",
"eeeeeeeeeeeeeeeeeeeeeeeeeeeeeeeeeeeeeeeeeeeeeeeeeeeeeeeeec",
"eeeeeeeeeeeeeeeeeeeeeeeeeeeeeeeeeeeeeeeeeeeeeeeeeeeeeeeeec",
"eeeeefffffffffffffffffffffffffffffffffffffffffffffffffeeec",
"eeeeeffffffffffffffffffffffffffffffffffffffffffffffffffeec",
"eeeeeefffffffffffffffffffffffffffffffffffffffffffffffffeec",
"eeeeeeeeeeeeeeeeeeeeeeeeeeeeeeeeeeeeeeeeeeeeeeeeeeeeeeeeec",
"eeeeeeeeeeeeeeeeeeeeeeeeeeeeeeeeeeeeeeeeeeeeeeeeeeeeeeeeec",
"eeeeeeffeffeffeffeffeffeffeffeffeffeffeffeffeffeffeffeeeec",
"eeeeeeeeeeeeeeeeeeeeeeeeeeeeeeeeeeeeeeeeeeeeeeeeeeeeeeeeec",
"eeeeeeffeffeffeffeffeffeffeffeffeffeffeffeffeffeffeffeeeec",
"eeeeeeeeeeeeeeeeeeeeeeeeeeeeeeeeeeeeeeeeeeeeeeeeeeeeeeeeec",
"eeeeeeffeffeffeffeffeffeffeffeffeffeffeffeffeffeffeffeeeec",
"eeeeeeeeeeeeeeeeeeeeeeeeeeeeeeeeeeeeeeeeeeeeeeeeeeeeeeeeec",
"eeeeeeffeffeffeffeffeffeffeffeffeffeffeffeffeffeffeffeeeec",
"eeeeeeeeeeeeeeeeeeeeeeeeeeeeeeeeeeeeeeeeeeeeeeeeeeeeeeeeec",
"eeeeeeffeffeffeffeffeffeffeffeffeffeffeffeffeffeffeffeeeec",
"eeeeeeeeeeeeeeeeeeeeeeeeeeeeeeeeeeeeeeeeeeeeeeeeeeeeeeeeec",
"eeeeeeeeeeeeeeeeeeeeeeeeeeeeeeeeeeeeeeeeeeeeeeeeeeeeeeeeec",
".eeeeeeeeeeeeeeeeeeeeeeeeeeeeeeeeeeeeeeeeeeeeeeeeeeeeeeec.",
"..cccccccccccccccccccccccccccccccccccccccccccccccccccccc.."
};
