/* XPM */
static char *backlightI_off_xpm[] = {
/* width height num_colors chars_per_pixel */
"    58    58        9            1",
/* colors */
". c None",
"# c #020202",
"a c #0a0a0a",
"b c #484c46",
"c c #dedede",
"d c #7c827c",
"e c #8e968a",
"f c #767c6f",
"g c #3e463e",
/* pixels */
"..######################################################..",
".#aaaaaaaaaaaaaaaaaaaaaaaaaaaaaaaaaaaaaaaaaaaaaaaaaaaaaa#.",
"#aabbbbbbbbbbbbbbbbbbbbbbbbbbbbbbbbbbbbbbbbbbbbbbbbbbbbb#c",
"#abbdddddddddddddddddddddddddddddddddddddddddddddddddddd#c",
"#abddeeeeeeeeeeeeeeeeeeeeeeeeeeeeeeeeeeeeeeeeeeeeeeeeeee#c",
"#abdeeeeeeeeeeeeeeeeeeeeeeeeeeeeeeeeeeeeeeeeeeeeeeeeeeee#c",
"#abdeeeeeeeeeeeeeeeeeeffffffeeeeeeffffffeeeeeeffffffeeee#c",
"#abdeeeeeeeeeeeeeeeefeeffffeefeefeeffffeefeefeeffffeefee#c",
"#abdeeeeeeeeeeeeeeeeffeeeeeeffeeffeeeeeeffeeffeeeeeeffee#c",
"#abdeeeeeeeeeeeeeeeeffeeeeeeffeeffeeeeeeffeeffeeeeeeffee#c",
"#abdeeeeeeeeeeeeeeeeffeeeeeeffeeffeeeeeeffeeffeeeeeeffee#c",
"#abdeeeeeeeeeeeeeeeeffeeeeeeffeeffeeeeeeffeeffeeeeeeffee#c",
"#abdeeeeeeeeeeeeeeeeffeeeeeeffeeffeeeeeeffeeffeeeeeeffee#c",
"#abdeeeeee#####eeeeeffeeeeeeffeeffeeeeeeffeeffeeeeeeffee#c",
"#abdeeeee#eeeee#eeeeffeeeeeeffeeffeeeeeeffeeffeeeeeeffee#c",
"#abdeeeee#e###e#eeeefeeffffeefeefeeffffeefeefeeffffeefee#c",
"#abdeeeee#e#e#e#eeeeeeffffffeeeeeeffffffeeeeeeffffffeeee#c",
"#abdeeeee#e###e#eeeefeeeeeeeefeefeeeeeeeefeefeeeeeeeefee#c",
"#abdeeeee#eeee#eeeeeffeeeeeeffeeffeeeeeeffeeffeeeeeeffee#c",
"#abdeeeee#eeeeeeeeeeffeeeeeeffeeffeeeeeeffeeffeeeeeeffee#c",
"#abdeeeeee#####eeeeeffeeeeeeffeeffeeeeeeffeeffeeeeeeffee#c",
"#abdeeeeeeeeeeeeeeeeffeeeeeeffeeffeeeeeeffeeffeeeeeeffee#c",
"#abdeeeeeeeeeeeeeeeeffeeeeeeffeeffeeeeeeffeeffeeeeeeffee#c",
"#abdeeeeeeeeeeeeeeeeffeeeeeeffeeffeeeeeeffeeffeeeeeeffee#c",
"#abdeeeeeeeeeeeeeeeefeeffffeefeefeeffffeefeefeeffffeefee#c",
"#abdeeeeeeeeeeeeeeeeeeffffffeeeeeeffffffeeeeeeffffffeeee#c",
"#abdeeeeeeeeeeeeeeeeeeeeeeeeeeeeeeeeeeeeeeeeeeeeeeeeeeee#c",
"#abdeeeeeeeeeeeeeeeeeeeeeeeeeeeeeeeeeeeeeeeeeeeeeeeeeeee#c",
"#abdeeeeeeeeeeeeeeeeeeeeeeeeeeeeeeeeeeeeeeeeeeeeeefffeee#c",
"#abdeeeeeeeeeeeeeeeeeeeeeeeeeeeeeeeeeeeeeeeeeeeeefeeefee#c",
"#abdeeeeeeeeeeeeeeeeeeeeeeeeeeeeeeeeeeeeeeeeeeeeefeeefee#c",
"#abdeeeeeeeeeeeeeeeeeeeeeeeeeeeeeeeeeeeeeeeeeeeeefeeefee#c",
"#abdeeeeeeeeeeeeeeeeeeeeeeeeeeeeeeeeeeeeeeeeeeeeeefffeee#c",
"#abdeeeeeeeeeeeeeeeeeeeeeeeeeeeeeeeeeeeeeeeeeeeeefeeefee#c",
"#abdeeeeeeeeeeeeeeeeeeeeeeeeeeeeeeeeeeeeeeeeeeeeefeeefee#c",
"#abdeeeeeeeeeeeeeeeeeeeeeeeeeeeeeeeeeeeeeeeeeggeefeeefee#c",
"#abdeeeeeeeeeeeeeeeeeeeeeeeeeeeeeeeeeeeeeeeeeggfeefffeee#c",
"#abdeeeeeeeeeeeeeeeeeeeeeeeeeeeeeeeeeeeeeeeeeeffeeeeeeee#c",
"#abdeeeeeeeeeeeeeeeeeeeeeeeeeeeeeeeeeeeeeeeeeeeeeeeeeeee#c",
"#abdeeeeeeeeeeeeeeeeeeeeeeeeeeeeeeeeeeeeeeeeeeeeeeeeeeee#c",
"#abdegggggggggggggggggggggggggggggggggggggggggggggggggee#c",
"#abdegggggggggggggggggggggggggggggggggggggggggggggggggfe#c",
"#abdeefffffffffffffffffffffffffffffffffffffffffffffffffe#c",
"#abdeeeeeeeeeeeeeeeeeeeeeeeeeeeeeeeeeeeeeeeeeeeeeeeeeeee#c",
"#abdeeeeeeeeeeeeeeeeeeeeeeeeeeeeeeeeeeeeeeeeeeeeeeeeeeee#c",
"#abdeeffeffeffeffeffeffeffeffeffeffeffeffeffeffeffeffeee#c",
"#abdeeeeeeeeeeeeeeeeeeeeeeeeeeeeeeeeeeeeeeeeeeeeeeeeeeee#c",
"#abdeeffeffeffeffeffeffeffeffeffeffeffeffeffeffeffeffeee#c",
"#abdeeeeeeeeeeeeeeeeeeeeeeeeeeeeeeeeeeeeeeeeeeeeeeeeeeee#c",
"#abdeeffeffeffeffeffeffeffeffeffeffeffeffeffeffeffeffeee#c",
"#abdeeeeeeeeeeeeeeeeeeeeeeeeeeeeeeeeeeeeeeeeeeeeeeeeeeee#c",
"#abdeeffeffeffeffeffeffeffeffeffeffeffeffeffeffeffeffeee#c",
"#abdeeeeeeeeeeeeeeeeeeeeeeeeeeeeeeeeeeeeeeeeeeeeeeeeeeee#c",
"#abdeeffeffeffeffeffeffeffeffeffeffeffeffeffeffeffeffeee#c",
"#abdeeeeeeeeeeeeeeeeeeeeeeeeeeeeeeeeeeeeeeeeeeeeeeeeeeee#c",
"#abdeeeeeeeeeeeeeeeeeeeeeeeeeeeeeeeeeeeeeeeeeeeeeeeeeee##c",
".#######################################################c.",
"..cccccccccccccccccccccccccccccccccccccccccccccccccccccc.."
};
