/* XPM */
static char *backlight0_on_xpm[] = {
/* width height num_colors chars_per_pixel */
"    58    58        6            1",
/* colors */
". c None",
"# c #020202",
"a c #6ec63b s Back0",
"b c #dedede",
"c c #6cb237 s Back1",
"d c #3e463e",
/* pixels */
"..######################################################..",
".#aaaaaaaaaaaaaaaaaaaaaaaaaaaaaaaaaaaaaaaaaaaaaaaaaaaaaa#.",
"#aaaaaaaaaaaaaaaaaaaaaaaaaaaaaaaaaaaaaaaaaaaaaaaaaaaaaaaab",
"#aaaaaaaaaaaaaaaaaaaaaaaaaaaaaaaaaaaaaaaaaaaaaaaaaaaaaaaab",
"#aaaaaaaaaaaaaaaaaaaaaaaaaaaaaaaaaaaaaaaaaaaaaaaaaaaaaaaab",
"#aaaaaaaaaaaaaaaaaaaaaaaaaaaaaaaaaaaaaaaaaaaaaaaaaaaaaaaab",
"#aaaaaaccccccaaaaaaccccccaaaaaaaaaccccccaaaaaaccccccaaaaab",
"#aaaacaaccccaacaacaaccccaacaaaaacaaccccaacaacaaccccaacaaab",
"#aaaaccaaaaaaccaaccaaaaaaccaaaaaccaaaaaaccaaccaaaaaaccaaab",
"#aaaaccaaaaaaccaaccaaaaaaccaaaaaccaaaaaaccaaccaaaaaaccaaab",
"#aaaaccaaaaaaccaaccaaaaaaccaaaaaccaaaaaaccaaccaaaaaaccaaab",
"#aaaaccaaaaaaccaaccaaaaaacca##aaccaaaaaaccaaccaaaaaaccaaab",
"#aaaaccaaaaaaccaaccaaaaaacca##caccaaaaaaccaaccaaaaaaccaaab",
"#aaaaccaaaaaaccaaccaaaaaaccaaccaccaaaaaaccaaccaaaaaaccaaab",
"#aaaaccaaaaaaccaaccaaaaaaccaaaaaccaaaaaaccaaccaaaaaaccaaab",
"#aaaacaaccccaacaacaaccccaacaaaaacaaccccaacaacaaccccaacaaab",
"#aaaaaaccccccaaaaaaccccccaaaaaaaaaccccccaaaaaaccccccaaaaab",
"#aaaacaaaaaaaacaacaaaaaaaacaaaaacaaaaaaaacaacaaaaaaaacaaab",
"#aaaaccaaaaaaccaaccaaaaaaccaaaaaccaaaaaaccaaccaaaaaaccaaab",
"#aaaaccaaaaaaccaaccaaaaaaccaaaaaccaaaaaaccaaccaaaaaaccaaab",
"#aaaaccaaaaaaccaaccaaaaaacca##aaccaaaaaaccaaccaaaaaaccaaab",
"#aaaaccaaaaaaccaaccaaaaaacca##caccaaaaaaccaaccaaaaaaccaaab",
"#aaaaccaaaaaaccaaccaaaaaaccaaccaccaaaaaaccaaccaaaaaaccaaab",
"#aaaaccaaaaaaccaaccaaaaaaccaaaaaccaaaaaaccaaccaaaaaaccaaab",
"#aaaacaaccccaacaacaaccccaacaaaaacaaccccaacaacaaccccaacaaab",
"#aaaaaaccccccaaaaaaccccccaaaaaaaaaccccccaaaaaaccccccaaaaab",
"#aaaaaaaaaaaaaaaaaaaaaaaaaaaaaaaaaaaaaaaaaaaaaaaaaaaaaaaab",
"#aaaaaaaaaaaaaaaaaaaaaaaaaaaaaaaaaaaaaaaaaaaaaaaaaaaaaaaab",
"#aaaaccccccccccccaccccccccccccccccccccccaaaacccaaacccaaaab",
"#aaaacaaaacacccacacaaaacaccccaaaacacccacaaacaaacacaaacaaab",
"#aaaacaccacaacaacacaccacaccccaccacaacaacaaacaaacacaaacaaab",
"#aaaacaaaacacacacacaaaacaccccaaaacacacacaaacaaacacaaacaaab",
"#aaaacaccacacccacacaccacaccccacaccacccacaaaacccaaacccaaaab",
"#aaaacaccacacccacacaccacaaaacaccacacccacaaacaaacacaaacaaab",
"#aaaaccccccccccccaccccccccccccccccccccccaaacaaacacaaacaaab",
"#aaaaaaaaaaaaaaaaaaaaaaaaaaaaaaaaaaaaaaaaaacaaacacaaacaaab",
"#aaaaccccccccccccaaaaaaaaaaaaaaaaaaaaaaaaaaacccaaacccaaaab",
"#aaaacaaaacacccacaaaaaaaaaaaaaaaaaaaaaaaaaaaaaaaaaaaaaaaab",
"#aaaacaccacaacaacaaaaaaaaaaaaaaaaaaaaaaaaaaaaaaaaaaaaaaaab",
"#aaaacaaaacacacacaaaaaaaaaaaaaaaaaaaaaaaaaaaaaaaaaaaaaaaab",
"#aaaacaccccacccacaaadddddddddddddddddddddddddddddddddaaaab",
"#aaaacaccccacccacaaadddddddddddddddddddddddddddddddddcaaab",
"#aaaaccccccccccccaaaacccccccccccccccccccccccccccccccccaaab",
"#aaaaaaaaaaaaaaaaaaaaaaaaaaaaaaaaaaaaaaaaaaaaaaaaaaaaaaaab",
"#aaaaaaaaaaaaaaaaaaaaaaaaaaaaaaaaaaaaaaaaaaaaaaaaaaaaaaaab",
"#aaaaaaaaaaaaaaaaaaaaaaaacccaaacccaaaaaaaaaaaaaaaaaaaaaaab",
"#aaaaaaaaaaaaaaaaaaaaaaacaaacacaaacaaaaaaaaaaaaaaaaaaaaaab",
"#aaaacccccacccccacccccaacaaacacaaacaacccccacccccacccccaaab",
"#aaaacccccacccccacccccaacaaacacaaacaacccccacccccacccccaaab",
"#aaaacccccacccccacccccaaacccaaacccaaacccccacccccacccccaaab",
"#aaaacccccacccccacccccaacaaacacaaacaacccccacccccacccccaaab",
"#aaaacccccacccccacccccaacaaacacaaacaacccccacccccacccccaaab",
"#aaaacccccacccccacccccaacaaacacaaacaacccccacccccacccccaaab",
"#aaaacccccacccccacccccaaacccaaacccaaacccccacccccacccccaaab",
"#aaaaaaaaaaaaaaaaaaaaaaaaaaaaaaaaaaaaaaaaaaaaaaaaaaaaaaaab",
"#aaaaaaaaaaaaaaaaaaaaaaaaaaaaaaaaaaaaaaaaaaaaaaaaaaaaaaaab",
".#aaaaaaaaaaaaaaaaaaaaaaaaaaaaaaaaaaaaaaaaaaaaaaaaaaaaaab.",
"..bbbbbbbbbbbbbbbbbbbbbbbbbbbbbbbbbbbbbbbbbbbbbbbbbbbbbb.."
};
