/* XPM */
static char *backlight_0_color_off_xpm[] = {
/* width height num_colors chars_per_pixel */
"    58    58        5            1",
/* colors */
". c None",
"# c #00B0EA s Back0", /* light blue */
"b c #dedede",
"e c #000000", /* black */
"f c #004455 s Back1", /* dark blue */
/* pixels */
"..eeeeeeeeeeeeeeeeeeeeeeeeeeeeeeeeeeeeeeeeeeeeeeeeeeeeee..",
".eeeeeeeeeeeeeeeeeeeeeeeeeeeeeeeeeeeeeeeeeeeeeeeeeeeeeeee.",
"eeeeeeeeeeeeeeeeeeeeeeeeeeeeeeeeeeeeeeeeeeeeeeeeeeeeeeeeeb",
"eeeeeeeeeeeeeeeeeeeeeeeeeeeeeeeeeeeeeeeeeeeeeeeeeeeeeeeeeb",
"eeeeeeeeeeeeeeeeeeeeeeeeeeeeeeeeeeeeeeeeeeeeeeeeeeeeeeeeeb",
"eeeeeeeeeeeeeeeeeeeeeeeeeeeeeeeeeeeeeeeeeeeeeeeeeeeeeeeeeb",
"eeeeeeeffffffeeeeeeffffffeeeeeeeeeffffffeeeeeeffffffeeeeeb",
"eeeeefeeffffeefeefeeffffeefeeeeefeeffffeefeefeeffffeefeeeb",
"eeeeeffeeeeeeffeeffeeeeeeffeeeeeffeeeeeeffeeffeeeeeeffeeeb",
"eeeeeffeeeeeeffeeffeeeeeeffeeeeeffeeeeeeffeeffeeeeeeffeeeb",
"eeeeeffeeeeeeffeeffeeeeeeffeeeeeffeeeeeeffeeffeeeeeeffeeeb",
"eeeeeffeeeeeeffeeffeeeeeeffe##eeffeeeeeeffeeffeeeeeeffeeeb",
"eeeeeffeeeeeeffeeffeeeeeeffe##feffeeeeeeffeeffeeeeeeffeeeb",
"eeeeeffeeeeeeffeeffeeeeeeffeeffeffeeeeeeffeeffeeeeeeffeeeb",
"eeeeeffeeeeeeffeeffeeeeeeffeeeeeffeeeeeeffeeffeeeeeeffeeeb",
"eeeeefeeffffeefeefeeffffeefeeeeefeeffffeefeefeeffffeefeeeb",
"eeeeeeeffffffeeeeeeffffffeeeeeeeeeffffffeeeeeeffffffeeeeeb",
"eeeeefeeeeeeeefeefeeeeeeeefeeeeefeeeeeeeefeefeeeeeeeefeeeb",
"eeeeeffeeeeeeffeeffeeeeeeffeeeeeffeeeeeeffeeffeeeeeeffeeeb",
"eeeeeffeeeeeeffeeffeeeeeeffeeeeeffeeeeeeffeeffeeeeeeffeeeb",
"eeeeeffeeeeeeffeeffeeeeeeffe##eeffeeeeeeffeeffeeeeeeffeeeb",
"eeeeeffeeeeeeffeeffeeeeeeffe##feffeeeeeeffeeffeeeeeeffeeeb",
"eeeeeffeeeeeeffeeffeeeeeeffeeffeffeeeeeeffeeffeeeeeeffeeeb",
"eeeeeffeeeeeeffeeffeeeeeeffeeeeeffeeeeeeffeeffeeeeeeffeeeb",
"eeeeefeeffffeefeefeeffffeefeeeeefeeffffeefeefeeffffeefeeeb",
"eeeeeeeffffffeeeeeeffffffeeeeeeeeeffffffeeeeeeffffffeeeeeb",
"eeeeeeeeeeeeeeeeeeeeeeeeeeeeeeeeeeeeeeeeeeeeeeeeeeeeeeeeeb",
"eeeeeeeeeeeeeeeeeeeeeeeeeeeeeeeeeeeeeeeeeeeeeeeeeeeeeeeeeb",
"eeeeeffffffffffffeffffffffffffffffffffffeeeefffeeefffeeeeb",
"eeeeefeeeefefffefefeeeefeffffeeeefefffefeeefeeefefeeefeeeb",
"eeeeefeffefeefeefefeffefeffffeffefeefeefeeefeeefefeeefeeeb",
"eeeeefeeeefefefefefeeeefeffffeeeefefefefeeefeeefefeeefeeeb",
"eeeeefeffefefffefefeffefeffffefeffefffefeeeefffeeefffeeeeb",
"eeeeefeffefefffefefeffefeeeefeffefefffefeeefeeefefeeefeeeb",
"eeeeeffffffffffffeffffffffffffffffffffffeeefeeefefeeefeeeb",
"eeeeeeeeeeeeeeeeeeeeeeeeeeeeeeeeeeeeeeeeeeefeeefefeeefeeeb",
"eeeeeffffffffffffeeeeeeeeeeeeeeeeeeeeeeeeeeefffeeefffeeeeb",
"eeeeefeeeefefffefeeeeeeeeeeeeeeeeeeeeeeeeeeeeeeeeeeeeeeeeb",
"eeeeefeffefeefeefeeeeeeeeeeeeeeeeeeeeeeeeeeeeeeeeeeeeeeeeb",
"eeeeefeeeefefefefeeeeeeeeeeeeeeeeeeeeeeeeeeeeeeeeeeeeeeeeb",
"eeeeefeffffefffefeeefffffffffffffffffffffffffffffffffeeeeb",
"eeeeefeffffefffefeeeffffffffffffffffffffffffffffffffffeeeb",
"eeeeeffffffffffffeeeefffffffffffffffffffffffffffffffffeeeb",
"eeeeeeeeeeeeeeeeeeeeeeeeeeeeeeeeeeeeeeeeeeeeeeeeeeeeeeeeeb",
"eeeeeeeeeeeeeeeeeeeeeeeeeeeeeeeeeeeeeeeeeeeeeeeeeeeeeeeeeb",
"eeeeeeeeeeeeeeeeeeeeeeeeefffeeefffeeeeeeeeeeeeeeeeeeeeeeeb",
"eeeeeeeeeeeeeeeeeeeeeeeefeeefefeeefeeeeeeeeeeeeeeeeeeeeeeb",
"eeeeefffffefffffefffffeefeeefefeeefeefffffefffffefffffeeeb",
"eeeeefffffefffffefffffeefeeefefeeefeefffffefffffefffffeeeb",
"eeeeefffffefffffefffffeeefffeeefffeeefffffefffffefffffeeeb",
"eeeeefffffefffffefffffeefeeefefeeefeefffffefffffefffffeeeb",
"eeeeefffffefffffefffffeefeeefefeeefeefffffefffffefffffeeeb",
"eeeeefffffefffffefffffeefeeefefeeefeefffffefffffefffffeeeb",
"eeeeefffffefffffefffffeeefffeeefffeeefffffefffffefffffeeeb",
"eeeeeeeeeeeeeeeeeeeeeeeeeeeeeeeeeeeeeeeeeeeeeeeeeeeeeeeeeb",
"eeeeeeeeeeeeeeeeeeeeeeeeeeeeeeeeeeeeeeeeeeeeeeeeeeeeeeeeeb",
".eeeeeeeeeeeeeeeeeeeeeeeeeeeeeeeeeeeeeeeeeeeeeeeeeeeeeeeb.",
"..bbbbbbbbbbbbbbbbbbbbbbbbbbbbbbbbbbbbbbbbbbbbbbbbbbbbbb.."
};
