/* XPM */
static char *backlight_0_color_on_xpm[] = {
/* width height num_colors chars_per_pixel */
"    58    58        5            1",
/* colors */
". c None",
"a c #00B0EA s Back0",
"b c #dedede",
"c c #000000",
"d c #0088AA s Back2",
/* pixels */
"..dddddddddddddddddddddddddddddddddddddddddddddddddddddd..",
".daaaaaaaaaaaaaaaaaaaaaaaaaaaaaaaaaaaaaaaaaaaaaaaaaaaaaad.",
"daaaaaaaaaaaaaaaaaaaaaaaaaaaaaaaaaaaaaaaaaaaaaaaaaaaaaaaab",
"daaaaaaaaaaaaaaaaaaaaaaaaaaaaaaaaaaaaaaaaaaaaaaaaaaaaaaaab",
"daaaaaaaaaaaaaaaaaaaaaaaaaaaaaaaaaaaaaaaaaaaaaaaaaaaaaaaab",
"daaaaaaaaaaaaaaaaaaaaaaaaaaaaaaaaaaaaaaaaaaaaaaaaaaaaaaaab",
"daaaaaaddddddaaaaaaddddddaaaaaaaaaddddddaaaaaaddddddaaaaab",
"daaaadaaddddaadaadaaddddaadaaaaadaaddddaadaadaaddddaadaaab",
"daaaaddaaaaaaddaaddaaaaaaddaaaaaddaaaaaaddaaddaaaaaaddaaab",
"daaaaddaaaaaaddaaddaaaaaaddaaaaaddaaaaaaddaaddaaaaaaddaaab",
"daaaaddaaaaaaddaaddaaaaaaddaaaaaddaaaaaaddaaddaaaaaaddaaab",
"daaaaddaaaaaaddaaddaaaaaaddaccaaddaaaaaaddaaddaaaaaaddaaab",
"daaaaddaaaaaaddaaddaaaaaaddacccaddaaaaaaddaaddaaaaaaddaaab",
"daaaaddaaaaaaddaaddaaaaaaddaaddaddaaaaaaddaaddaaaaaaddaaab",
"daaaaddaaaaaaddaaddaaaaaaddaaaaaddaaaaaaddaaddaaaaaaddaaab",
"daaaadaaddddaadaadaaddddaadaaaaadaaddddaadaadaaddddaadaaab",
"daaaaaaddddddaaaaaaddddddaaaaaaaaaddddddaaaaaaddddddaaaaab",
"daaaadaaaaaaaadaadaaaaaaaadaaaaadaaaaaaaadaadaaaaaaaadaaab",
"daaaaddaaaaaaddaaddaaaaaaddaaaaaddaaaaaaddaaddaaaaaaddaaab",
"daaaaddaaaaaaddaaddaaaaaaddaaaaaddaaaaaaddaaddaaaaaaddaaab",
"daaaaddaaaaaaddaaddaaaaaaddaccaaddaaaaaaddaaddaaaaaaddaaab",
"daaaaddaaaaaaddaaddaaaaaaddacccaddaaaaaaddaaddaaaaaaddaaab",
"daaaaddaaaaaaddaaddaaaaaaddaaddaddaaaaaaddaaddaaaaaaddaaab",
"daaaaddaaaaaaddaaddaaaaaaddaaaaaddaaaaaaddaaddaaaaaaddaaab",
"daaaadaaddddaadaadaaddddaadaaaaadaaddddaadaadaaddddaadaaab",
"daaaaaaddddddaaaaaaddddddaaaaaaaaaddddddaaaaaaddddddaaaaab",
"daaaaaaaaaaaaaaaaaaaaaaaaaaaaaaaaaaaaaaaaaaaaaaaaaaaaaaaab",
"daaaaaaaaaaaaaaaaaaaaaaaaaaaaaaaaaaaaaaaaaaaaaaaaaaaaaaaab",
"daaaaddddddddddddaddddddddddddddddddddddaaaadddaaadddaaaab",
"daaaadaaaadadddadadaaaadaddddaaaadadddadaaadaaadadaaadaaab",
"daaaadaddadaadaadadaddadaddddaddadaadaadaaadaaadadaaadaaab",
"daaaadaaaadadadadadaaaadaddddaaaadadadadaaadaaadadaaadaaab",
"daaaadaddadadddadadaddadaddddadaddadddadaaaadddaaadddaaaab",
"daaaadaddadadddadadaddadaaaadaddadadddadaaadaaadadaaadaaab",
"daaaaddddddddddddaddddddddddddddddddddddaaadaaadadaaadaaab",
"daaaaaaaaaaaaaaaaaaaaaaaaaaaaaaaaaaaaaaaaaadaaadadaaadaaab",
"daaaaddddddddddddaaaaaaaaaaaaaaaaaaaaaaaaaaadddaaadddaaaab",
"daaaadaaaadadddadaaaaaaaaaaaaaaaaaaaaaaaaaaaaaaaaaaaaaaaab",
"daaaadaddadaadaadaaaaaaaaaaaaaaaaaaaaaaaaaaaaaaaaaaaaaaaab",
"daaaadaaaadadadadaaaaaaaaaaaaaaaaaaaaaaaaaaaaaaaaaaaaaaaab",
"daaaadaddddadddadaaadddddddddddddddddddddddddddddddddaaaab",
"daaaadaddddadddadaaaddddddddddddddddddddddddddddddddddaaab",
"daaaaddddddddddddaaaadddddddddddddddddddddddddddddddddaaab",
"daaaaaaaaaaaaaaaaaaaaaaaaaaaaaaaaaaaaaaaaaaaaaaaaaaaaaaaab",
"daaaaaaaaaaaaaaaaaaaaaaaaaaaaaaaaaaaaaaaaaaaaaaaaaaaaaaaab",
"daaaaaaaaaaaaaaaaaaaaaaaadddaaadddaaaaaaaaaaaaaaaaaaaaaaab",
"daaaaaaaaaaaaaaaaaaaaaaadaaadadaaadaaaaaaaaaaaaaaaaaaaaaab",
"daaaadddddadddddadddddaadaaadadaaadaadddddadddddadddddaaab",
"daaaadddddadddddadddddaadaaadadaaadaadddddadddddadddddaaab",
"daaaadddddadddddadddddaaadddaaadddaaadddddadddddadddddaaab",
"daaaadddddadddddadddddaadaaadadaaadaadddddadddddadddddaaab",
"daaaadddddadddddadddddaadaaadadaaadaadddddadddddadddddaaab",
"daaaadddddadddddadddddaadaaadadaaadaadddddadddddadddddaaab",
"daaaadddddadddddadddddaaadddaaadddaaadddddadddddadddddaaab",
"daaaaaaaaaaaaaaaaaaaaaaaaaaaaaaaaaaaaaaaaaaaaaaaaaaaaaaaab",
"daaaaaaaaaaaaaaaaaaaaaaaaaaaaaaaaaaaaaaaaaaaaaaaaaaaaaaaab",
".daaaaaaaaaaaaaaaaaaaaaaaaaaaaaaaaaaaaaaaaaaaaaaaaaaaaaab.",
"..bbbbbbbbbbbbbbbbbbbbbbbbbbbbbbbbbbbbbbbbbbbbbbbbbbbbbb.."
};
