/* XPM */
static char *backlight0_off_xpm[] = {
/* width height num_colors chars_per_pixel */
"    58    58        9            1",
/* colors */
". c None",
"# c #020202",
"a c #0a0a0a",
"b c #484c46",
"c c #dedede",
"d c #7c827c",
"e c #8e968a",
"f c #767c6f",
"g c #3e463e",
/* pixels */
"..######################################################..",
".#aaaaaaaaaaaaaaaaaaaaaaaaaaaaaaaaaaaaaaaaaaaaaaaaaaaaaa#.",
"#aabbbbbbbbbbbbbbbbbbbbbbbbbbbbbbbbbbbbbbbbbbbbbbbbbbbbb#c",
"#abbdddddddddddddddddddddddddddddddddddddddddddddddddddd#c",
"#abddeeeeeeeeeeeeeeeeeeeeeeeeeeeeeeeeeeeeeeeeeeeeeeeeeee#c",
"#abdeeeeeeeeeeeeeeeeeeeeeeeeeeeeeeeeeeeeeeeeeeeeeeeeeeee#c",
"#abdeeeffffffeeeeeeffffffeeeeeeeeeffffffeeeeeeffffffeeee#c",
"#abdefeeffffeefeefeeffffeefeeeeefeeffffeefeefeeffffeefee#c",
"#abdeffeeeeeeffeeffeeeeeeffeeeeeffeeeeeeffeeffeeeeeeffee#c",
"#abdeffeeeeeeffeeffeeeeeeffeeeeeffeeeeeeffeeffeeeeeeffee#c",
"#abdeffeeeeeeffeeffeeeeeeffeeeeeffeeeeeeffeeffeeeeeeffee#c",
"#abdeffeeeeeeffeeffeeeeeeffe##eeffeeeeeeffeeffeeeeeeffee#c",
"#abdeffeeeeeeffeeffeeeeeeffe##feffeeeeeeffeeffeeeeeeffee#c",
"#abdeffeeeeeeffeeffeeeeeeffeeffeffeeeeeeffeeffeeeeeeffee#c",
"#abdeffeeeeeeffeeffeeeeeeffeeeeeffeeeeeeffeeffeeeeeeffee#c",
"#abdefeeffffeefeefeeffffeefeeeeefeeffffeefeefeeffffeefee#c",
"#abdeeeffffffeeeeeeffffffeeeeeeeeeffffffeeeeeeffffffeeee#c",
"#abdefeeeeeeeefeefeeeeeeeefeeeeefeeeeeeeefeefeeeeeeeefee#c",
"#abdeffeeeeeeffeeffeeeeeeffeeeeeffeeeeeeffeeffeeeeeeffee#c",
"#abdeffeeeeeeffeeffeeeeeeffeeeeeffeeeeeeffeeffeeeeeeffee#c",
"#abdeffeeeeeeffeeffeeeeeeffe##eeffeeeeeeffeeffeeeeeeffee#c",
"#abdeffeeeeeeffeeffeeeeeeffe##feffeeeeeeffeeffeeeeeeffee#c",
"#abdeffeeeeeeffeeffeeeeeeffeeffeffeeeeeeffeeffeeeeeeffee#c",
"#abdeffeeeeeeffeeffeeeeeeffeeeeeffeeeeeeffeeffeeeeeeffee#c",
"#abdefeeffffeefeefeeffffeefeeeeefeeffffeefeefeeffffeefee#c",
"#abdeeeffffffeeeeeeffffffeeeeeeeeeffffffeeeeeeffffffeeee#c",
"#abdeeeeeeeeeeeeeeeeeeeeeeeeeeeeeeeeeeeeeeeeeeeeeeeeeeee#c",
"#abdeeeeeeeeeeeeeeeeeeeeeeeeeeeeeeeeeeeeeeeeeeeeeeeeeeee#c",
"#abdeffffffffffffeffffffffffffffffffffffeeeefffeeefffeee#c",
"#abdefeeeefefffefefeeeefeffffeeeefefffefeeefeeefefeeefee#c",
"#abdefeffefeefeefefeffefeffffeffefeefeefeeefeeefefeeefee#c",
"#abdefeeeefefefefefeeeefeffffeeeefefefefeeefeeefefeeefee#c",
"#abdefeffefefffefefeffefeffffefeffefffefeeeefffeeefffeee#c",
"#abdefeffefefffefefeffefeeeefeffefefffefeeefeeefefeeefee#c",
"#abdeffffffffffffeffffffffffffffffffffffeeefeeefefeeefee#c",
"#abdeeeeeeeeeeeeeeeeeeeeeeeeeeeeeeeeeeeeeeefeeefefeeefee#c",
"#abdeffffffffffffeeeeeeeeeeeeeeeeeeeeeeeeeeefffeeefffeee#c",
"#abdefeeeefefffefeeeeeeeeeeeeeeeeeeeeeeeeeeeeeeeeeeeeeee#c",
"#abdefeffefeefeefeeeeeeeeeeeeeeeeeeeeeeeeeeeeeeeeeeeeeee#c",
"#abdefeeeefefefefeeeeeeeeeeeeeeeeeeeeeeeeeeeeeeeeeeeeeee#c",
"#abdefeffffefffefeeegggggggggggggggggggggggggggggggggeee#c",
"#abdefeffffefffefeeegggggggggggggggggggggggggggggggggfee#c",
"#abdeffffffffffffeeeefffffffffffffffffffffffffffffffffee#c",
"#abdeeeeeeeeeeeeeeeeeeeeeeeeeeeeeeeeeeeeeeeeeeeeeeeeeeee#c",
"#abdeeeeeeeeeeeeeeeeeeeeeeeeeeeeeeeeeeeeeeeeeeeeeeeeeeee#c",
"#abdeeeeeeeeeeeeeeeeeeeeefffeeefffeeeeeeeeeeeeeeeeeeeeee#c",
"#abdeeeeeeeeeeeeeeeeeeeefeeefefeeefeeeeeeeeeeeeeeeeeeeee#c",
"#abdefffffefffffefffffeefeeefefeeefeefffffefffffefffffee#c",
"#abdefffffefffffefffffeefeeefefeeefeefffffefffffefffffee#c",
"#abdefffffefffffefffffeeefffeeefffeeefffffefffffefffffee#c",
"#abdefffffefffffefffffeefeeefefeeefeefffffefffffefffffee#c",
"#abdefffffefffffefffffeefeeefefeeefeefffffefffffefffffee#c",
"#abdefffffefffffefffffeefeeefefeeefeefffffefffffefffffee#c",
"#abdefffffefffffefffffeeefffeeefffeeefffffefffffefffffee#c",
"#abdeeeeeeeeeeeeeeeeeeeeeeeeeeeeeeeeeeeeeeeeeeeeeeeeeeee#c",
"#abdeeeeeeeeeeeeeeeeeeeeeeeeeeeeeeeeeeeeeeeeeeeeeeeeeee##c",
".#######################################################c.",
"..cccccccccccccccccccccccccccccccccccccccccccccccccccccc.."
};
