/* XPM */
static char *letters_xpm[] = {
/* width height num_colors chars_per_pixel */
"   130    21        3            1",
/* colors */
". c #8e968a",
"# c #6cb237 s Back1",
"a c #3e463e",
/* pixels */
"aaaaa.aa..aaaaaaaaaaa...aaaaaaa....aaaaaaaaaaaaaaaaaaaa#aa##aaaaaaaaaaa###aaaaaaa####aaaaaaaaaaaaaaa....a####a.....#####..........",
"a..aa..a......a....aa...aa....a........aa...aa...aa##aa##a######a####aa###aa####a########aa###aa###a...a.###a#..a..##a##..........",
"a.a.a..a..aaaaaaaaaaaaaaaaaaaaaaaaa....aaaaaaaaaaaa#a#a##a##aaaaaaaaaaaaaaaaaaaaaaaaa####aaaaaaaaaaa..a..##a##.....#####..........",
"aa..a..a..a........a....a....aa...a....aa...a....aaa##a##a##a########a####a####aa###a####aa###a####a.a...#a###..a..##a##..........",
"aaaaa..a..aaaaaaaaaa....aaaaaaaaaaa....aaaaaa....aaaaaa##a##aaaaaaaaaa####aaaaaaaaaaa####aaaaaa####aa....a####.....#####..........",
"aaaaaaaaa.aaaaaaaaa.aaaaaaaaaaaaaaaa...a..a.....a.a...aa....aaaaaaaaaaaaaaaaaaaaaaaaaaaaaaaaaaaaaaaaa...aa...aa.a.aa...aa...aaaaaa",
"a...aa..a.a....a...aa....a....a....a...a..a.....a.a..a.a....a.a.aa...aa...aa...aa...aa...aa......a..a...aa...aa.a.a.a.a.a...a....a",
"aaaaaaaaaaa....a...aaaaaaaaaaaa..aaaaaaa..a.....a.aaa..a....a.a.aa...aa...aaaaaaa...aaaaa.aaaaa..a..a...aa...aa.a.a..a..aaaaaaaaaa",
"a...aa...aa....a...aa....a....a...aa...a..a.....a.a..a.a....a.a.aa...aa...aa....a..aaa...a....a..a..a...a.a.a.a.a.a.a.a...a..a....",
"a...aaaaaaaaaaaaaaa.aaaaaa....aaaaaa...a..a...aaa.a...aaaaaaa.a.aa...aaaaaaa....aaaaaa...aaaaaa..a..aaaaa..a..aaaaaa...a..a..aaaaa",
"aaaaaaaaa#aaaaaaaaa#aaaaaaaaaaaaaaaa###a##a#####a#a###aa####aaaaaaaaaaaaaaaaaaaaaaaaaaaaaaaaaaaaaaaaa###aa###aa#a#aa###aa###aaaaaa",
"a###aa##a#a####a###aa####a####a####a###a##a#####a#a##a#a####a#a#aa###aa###aa###aa###aa###aa######a##a###aa###aa#a#a#a#a#a###a####a",
"aaaaaaaaaaa####a###aaaaaaaaaaaa##aaaaaaa##a#####a#aaa##a####a#a#aa###aa###aaaaaaa###aaaaa#aaaaa##a##a###aa###aa#a#a##a##aaaaaaaaaa",
"a###aa###aa####a###aa####a####a###aa###a##a#####a#a##a#a####a#a#aa###aa###aa####a##aaa###a####a##a##a###a#a#a#a#a#a#a#a###a##a####",
"a###aaaaaaaaaaaaaaa#aaaaaa####aaaaaa###a##a###aaa#a###aaaaaaa#a#aa###aaaaaaa####aaaaaa###aaaaaa##a##aaaaa##a##aaaaaa###a##a##aaaaa",
"##################################################################################################################################",
"##################################################################################################################################",
"##################################################################################################################################",
"##################################################################################################################################",
"##################################################################################################################################",
"##################################################################################################################################"
};
