/* XPM */
static char *letters_color_xpm[] = {
/* columns rows colors chars-per-pixel */
"130 21 2 1",
"  c #000000",
"X c #00B0EA s Back0",
/* pixels */
" XXX   X   XXX XXXXX  XX XXXXX XXX XXXXX XXX  XXX X   XXX XXX   X     XX  X     X   X     X   XX   X                              ",
"X   X XX  X   X    X X X X    X   X    XX   XX   X XXX X  XX XXX XXXX X X X XXXX XXX XXXX  XXX  XXX                               ",
"X  XXX X      X   X  X X XXXX X       X X   XX   X XX   X XXXXXX XXX XX X X    X XXXXXXX X XXX  XXX                               ",
"X X X  X     X   XX X  X X   XXXXX    X  XXX  XXXX X X XX XXXXX XXX  X XX X XXX     XXXX XX   XX                                  ",
"XX  X  X    X      XXXXXX    XX   X  X  X   X    X  XX XX XXXX XXXXXX      XXXX  XXX XX XX XXX XXXX                               ",
"X   X  X   X   X   X   X X   XX   X  X  X   XX   X XXX XX XXX XXX XXX XXX X XXX  XXX XX XX XXX  XXX                               ",
" XXX  XXX XXXXX XXX    X  XXX  XXX  X    XXX  XXX X   XX   X     X   XXXX XX   XX   XX XXXX   XX   X                              ",
" XXX XXX   XXX XXX  XXXXXXXXXX XXX X   X XXX   XXXX   XX    X   XX   X XXX XXXX  XXX XXXX  XXX XXXXXX   XX   XX   XX   XX   XXXXXX",
"X   XX  X X   XX  X X    X    X   XX   X  X      XX  X X    XX XXXX  XX   XX   XX   XX   XX   X  X  X   XX   XX   XX   XX   X    X",
"X   XX  X X    X   XX    X    X    X   X  X      XX X  X    X X XXX  XX   XX   XX   XX   XX      X  X   XX   XX   X X X X   X   X ",
"XXXXXXXXX X    X   XXXXX XXXX X  XXXXXXX  X      XXX   X    X X XX X XX   XXXXX X   XXXXX  XXX   X  X   X X X X X X  X   XXX   X  ",
"X   XX   XX    X   XX    X    X   XX   X  X      XX X  X    X   XX  XXX   XX    X   XX X      X  X  X   X X X X X X X X   X   X   ",
"X   XX   XX   XX  X X    X    X   XX   X  X  X   XX  X X    X   XX  XXX   XX    X X XX  X X   X  X  X   X  X  XX XXX   X  X  X    ",
"X   XXXXX  XXX XXX  XXXXXX     XXX X   X XXX  XXX X   XXXXXXX   XX   X XXX X     XXX X   X XXX   X   XXX   X  X   XX   X  X  XXXXX",
"X   X   XXX   X   XX          X   X XXX X   XXX    XXX  XXXX XXX  XXX X   X    XX   X    XX   X      XXX  XXX  XXX  XXX  XXX      ",
" XXX  XX X XXX  XX X XXXX XXXX XXX  XXX XX XXXXXX  XX X XXXX  X    XX  XXX  XXX  XXX  XXX  XXX XX XX XXX  XXX  XXX  XXX  XXX XXXX ",
" XXX  XX X XXXX XXX  XXXX XXXX XXXX XXX XX XXXXXX  X XX XXXX X X   XX  XXX  XXX  XXX  XXX  XXXXXX XX XXX  XXX  XXX X X X XXX XXX X",
"         X XXXX XXX     X    X XX       XX XXXXXX   XXX XXXX X X  X X  XXX     X XXX     XX   XXX XX XXX X X X X X XX XXX   XXX XX",
" XXX  XXX  XXXX XXX  XXXX XXXX XXX  XXX XX XXXXXX  X XX XXXX XXX  XX   XXX  XXXX XXX  X XXXXXX XX XX XXX X X X X X X X XXX XXX XXX",
" XXX  XXX  XXX  XX X XXXX XXXX XXX  XXX XX XX XXX  XX X XXXX XXX  XX   XXX  XXXX X X  XX X XXX XX XX XXX XX XX  X   XXX XX XX XXXX",
" XXX     XX   X   XX      XXXXX   X XXX X   XX   X XXX       XXX  XXX X   X XXXXX   X XXX X   XXX XXX   XXX XX XXX  XXX XX XX     "
};
