/* XPM */
static char *parts_color_xpm[] = {
/* width height num_colors chars_per_pixel */
"   104    68        7            1",
/* colors */
". c #000000",
"# c #00B0EA s Back0",
"a c #004455 s Back1",
"b c #6ec63b",
"c c #0088AA s Back2",
"d c #ffffff",
"e c #3e463e",
/* pixels */
"..######....aaaaaa....######....######....aaaaaa....######....######....######....######....######..##..",
"#..####..#a..aaaa..#a..####..#a..####..##..aaaa..##..####..a#..####..aa..####..##..####..##..####..#..##",
"##......##aa......##aa......##aa......####......####......aa##......aaaa......####......####......####..",
"##......##aa......##aa......##aa......####......####......aa##......aaaa......####......####......##..##",
"##......##aa......##aa......##aa......####......####......aa##......aaaa......####......####......####..",
"##......##aa......##aa......##aa......####......####......aa##......aaaa......####......####......##..##",
"##......##aa......##aa......##aa......####......####......aa##......aaaa......####......####......####..",
"##......##aa......##aa......##aa......####......####......aa##......aaaa......####......####......##..##",
"##......##aa......##aa......##aa......####......####......aa##......aaaa......####......####......####..",
"#..aaaa..#a..aaaa..#a..####..#a..####..##..####..##..####..a#..####..aa..aaaa..##..####..##..####..#..##",
"..aaaaaa....aaaaaa....######....######....######....######....######....aaaaaa....######....######..##..",
"#........#a........##........aa........#a........#a........##........#a........##........#a........#..##",
"##......##aa......####......aaaa......##aa......##aa......####......##aa......####......##aa......####..",
"##......##aa......####......aaaa......##aa......##aa......####......##aa......####......##aa......##..##",
"##......##aa......####......aaaa......##aa......##aa......####......##aa......####......##aa......####..",
"##......##aa......####......aaaa......##aa......##aa......####......##aa......####......##aa......##..##",
"##......##aa......####......aaaa......##aa......##aa......####......##aa......####......##aa......####..",
"##......##aa......####......aaaa......##aa......##aa......####......##aa......####......##aa......##..##",
"#..####..#a..aaaa..##..####..aa..####..#a..aaaa..#a..####..##..####..#a..aaaa..##..####..#a..####..###..",
"..######....aaaaaa....######....######....aaaaaa....######....######....aaaaaa....######....######....##",
"##......####cccccc####......####......####cccccc####......####......####......####......####......####..",
".##....##.c##cccc##.c##....##.c##....##..##cccc##..##....##c.##....##cc##....##..##....##..##....##.dddd",
"..######..cc######..cc######..cc######....######....######cc..######cccc######....######....######..dddd",
"..######..cc######..cc######..cc######....######....######cc..######cccc######....######....######..dddd",
"..######..cc######..cc######..cc######....######....######cc..######cccc######....######....######..dddd",
"..######..cc######..cc######..cc######....######....######cc..######cccc######....######....######..dddd",
"..######..cc######..cc######..cc######....######....######cc..######cccc######....######....######..dddd",
"..######..cc######..cc######..cc######....######....######cc..######cccc######....######....######..dddd",
"..######..cc######..cc######..cc######....######....######cc..######cccc######....######....######..dddd",
".##cccc##.c##cccc##.c##....##.c##....##..##....##..##....##c.##....##cc##cccc##..##....##..##....##.dddd",
"##cccccc####cccccc####......####......####......####......####......####cccccc####......####......##dddd",
".########.c########..########cc########.c########.c########..########.c########..########.c########.dddd",
"..######..cc######....######cccc######..cc######..cc######....######..cc######....######..cc######..dddd",
"..######..cc######....######cccc######..cc######..cc######....######..cc######....######..cc######..dddd",
"..######..cc######....######cccc######..cc######..cc######....######..cc######....######..cc######..dddd",
"..######..cc######....######cccc######..cc######..cc######....######..cc######....######..cc######..dddd",
"..######..cc######....######cccc######..cc######..cc######....######..cc######....######..cc######..dddd",
"..######..cc######....######cccc######..cc######..cc######....######..cc######....######..cc######..dddd",
".##....##.c##cccc##..##....##cc##....##.c##cccc##.c##....##..##....##.c##cccc##..##....##.c##....##.dddd",
"##......####cccccc####......####......####cccccc####......####......####cccccc####......####......##dddd",
".###..aaae.###..###.eaaaee###..###..###e.###..###.#...##ccce#...##...#ecccee...##...##...e#...##...#dddd",
"#...#a...#a...#a...##...##...a#...aa...##...##...#.###.c###.c###.c###..###..###c.###cc###..###..###.dddd",
"#...#a...#a...#a...##...##...a#...aa...##...##...#.###.c###.c###.c###..###..###c.###cc###..###..###.dddd",
"#...#a...#a...#a...##...##...a#...aa...##...##...#.###.c###.c###.c###..###..###c.###cc###..###..###.dddd",
"eaaae.aaae.###..###ee###ee###..###..aaae.###..###eeccce#ccce#...##...ee...ee...##...##ccce#...##...edddd",
"#...#a...##...aa...#a...#a...##...#a...##...#a...#.###.c###..###cc###.c###.c###..###.c###..###.c###.dddd",
"#...#a...##...aa...#a...#a...##...#a...##...#a...#.###.c###..###cc###.c###.c###..###.c###..###.c###.dddd",
"#...#a...##...aa...#a...#a...##...#a...##...#a...#.###.c###..###cc###.c###.c###..###.c###..###.c###.dddd",
".###..aaae.###e.###..aaaee###..###..aaae.###..###.#...##ccce#...e#...##cccee...##...##ccce#...##...#dddd",
"######################.############.############........................#............#............##dddd",
"#....#.####....#.###.#.#....#.###.#.#....#.###.#...####.#....####.#...#.#.####.#...#.#.####.#...#.##dddd",
"#.##.#.####.##.#..#..#.#.##.#..#..#.#.##.#..#..#...#..#.#....#..#.##.##.#.#..#.##.##.#.#..#.##.##.##dddd",
"#....#.####....#.#.#.#.#....#.#.#.#.#....#.#.#.#...####.#....####.#.#.#.#.####.#.#.#.#.####.#.#.#.##dddd",
"#.##.#.####.#.##.###.#.#.##.#.###.#.#.####.###.#...#..#.#....#.#..#...#.#.#..#.#...#.#.#....#...#.##dddd",
"#.##.#....#.##.#.###.#.#.##.#.###.#.#.####.###.#...#..#.####.#..#.#...#.#.#..#.#...#.#.#....#...#.##dddd",
"######################.############.############........................#............#............##dddd",
"##########..................................................########################################dddd",
"##########..................................................########################################dddd",
"##########..................................................########################################dddd",
"##########..................................................########################################dddd",
"##########..................................................########################################dddd",
"##########..................................................########################################dddd",
"##########..................................................########################################dddd",
"##########..................................................########################################dddd",
"##########..................................................########################################dddd",
"##########..................................................########################################dddd",
"..................................................##################################################dddd",
"..................................................##################################################dddd"
};
