/* XPM */
static char *parts_xpm[] = {
/* width height num_colors chars_per_pixel */
"   104    68        7            1",
/* colors */
". c #8e968a",
"# c #020202",
"a c #767c6f",
"b c #6ec63b s Back0",
"c c #6cb237 s Back1",
"d c #ffffff",
"e c #3e463e",
/* pixels */
"..######....aaaaaa....######....######....aaaaaa....######....######....######....######....######..####",
"#..####..#a..aaaa..#a..####..#a..####..##..aaaa..##..####..a#..####..aa..####..##..####..##..####..#..bb",
"##......##aa......##aa......##aa......####......####......aa##......aaaa......####......####......######",
"##......##aa......##aa......##aa......####......####......aa##......aaaa......####......####......##..bb",
"##......##aa......##aa......##aa......####......####......aa##......aaaa......####......####......######",
"##......##aa......##aa......##aa......####......####......aa##......aaaa......####......####......##..bb",
"##......##aa......##aa......##aa......####......####......aa##......aaaa......####......####......######",
"##......##aa......##aa......##aa......####......####......aa##......aaaa......####......####......##..bb",
"##......##aa......##aa......##aa......####......####......aa##......aaaa......####......####......######",
"#..aaaa..#a..aaaa..#a..####..#a..####..##..####..##..####..a#..####..aa..aaaa..##..####..##..####..#..bb",
"..aaaaaa....aaaaaa....######....######....######....######....######....aaaaaa....######....######..####",
"#........#a........##........aa........#a........#a........##........#a........##........#a........#..bb",
"##......##aa......####......aaaa......##aa......##aa......####......##aa......####......##aa......######",
"##......##aa......####......aaaa......##aa......##aa......####......##aa......####......##aa......##..bb",
"##......##aa......####......aaaa......##aa......##aa......####......##aa......####......##aa......######",
"##......##aa......####......aaaa......##aa......##aa......####......##aa......####......##aa......##..bb",
"##......##aa......####......aaaa......##aa......##aa......####......##aa......####......##aa......######",
"##......##aa......####......aaaa......##aa......##aa......####......##aa......####......##aa......##..bb",
"#..####..#a..aaaa..##..####..aa..####..#a..aaaa..#a..####..##..####..#a..aaaa..##..####..#a..####..#####",
"..######....aaaaaa....######....######....aaaaaa....######....######....aaaaaa....######....######....bb",
"bb######bbbbccccccbbbb######bbbb######bbbbccccccbbbb######bbbb######bbbb######bbbb######bbbb######bb####",
"#bb####bb#cbbccccbb#cbb####bb#cbb####bb##bbccccbb##bb####bbc#bb####bbccbb####bb##bb####bb##bb####bb#dddd",
"##bbbbbb##ccbbbbbb##ccbbbbbb##ccbbbbbb####bbbbbb####bbbbbbcc##bbbbbbccccbbbbbb####bbbbbb####bbbbbb##dddd",
"##bbbbbb##ccbbbbbb##ccbbbbbb##ccbbbbbb####bbbbbb####bbbbbbcc##bbbbbbccccbbbbbb####bbbbbb####bbbbbb##dddd",
"##bbbbbb##ccbbbbbb##ccbbbbbb##ccbbbbbb####bbbbbb####bbbbbbcc##bbbbbbccccbbbbbb####bbbbbb####bbbbbb##dddd",
"##bbbbbb##ccbbbbbb##ccbbbbbb##ccbbbbbb####bbbbbb####bbbbbbcc##bbbbbbccccbbbbbb####bbbbbb####bbbbbb##dddd",
"##bbbbbb##ccbbbbbb##ccbbbbbb##ccbbbbbb####bbbbbb####bbbbbbcc##bbbbbbccccbbbbbb####bbbbbb####bbbbbb##dddd",
"##bbbbbb##ccbbbbbb##ccbbbbbb##ccbbbbbb####bbbbbb####bbbbbbcc##bbbbbbccccbbbbbb####bbbbbb####bbbbbb##dddd",
"##bbbbbb##ccbbbbbb##ccbbbbbb##ccbbbbbb####bbbbbb####bbbbbbcc##bbbbbbccccbbbbbb####bbbbbb####bbbbbb##dddd",
"#bbccccbb#cbbccccbb#cbb####bb#cbb####bb##bb####bb##bb####bbc#bb####bbccbbccccbb##bb####bb##bb####bb#dddd",
"bbccccccbbbbccccccbbbb######bbbb######bbbb######bbbb######bbbb######bbbbccccccbbbb######bbbb######bbdddd",
"#bbbbbbbb#cbbbbbbbb##bbbbbbbbccbbbbbbbb#cbbbbbbbb#cbbbbbbbb##bbbbbbbb#cbbbbbbbb##bbbbbbbb#cbbbbbbbb#dddd",
"##bbbbbb##ccbbbbbb####bbbbbbccccbbbbbb##ccbbbbbb##ccbbbbbb####bbbbbb##ccbbbbbb####bbbbbb##ccbbbbbb##dddd",
"##bbbbbb##ccbbbbbb####bbbbbbccccbbbbbb##ccbbbbbb##ccbbbbbb####bbbbbb##ccbbbbbb####bbbbbb##ccbbbbbb##dddd",
"##bbbbbb##ccbbbbbb####bbbbbbccccbbbbbb##ccbbbbbb##ccbbbbbb####bbbbbb##ccbbbbbb####bbbbbb##ccbbbbbb##dddd",
"##bbbbbb##ccbbbbbb####bbbbbbccccbbbbbb##ccbbbbbb##ccbbbbbb####bbbbbb##ccbbbbbb####bbbbbb##ccbbbbbb##dddd",
"##bbbbbb##ccbbbbbb####bbbbbbccccbbbbbb##ccbbbbbb##ccbbbbbb####bbbbbb##ccbbbbbb####bbbbbb##ccbbbbbb##dddd",
"##bbbbbb##ccbbbbbb####bbbbbbccccbbbbbb##ccbbbbbb##ccbbbbbb####bbbbbb##ccbbbbbb####bbbbbb##ccbbbbbb##dddd",
"#bb####bb#cbbccccbb##bb####bbccbb####bb#cbbccccbb#cbb####bb##bb####bb#cbbccccbb##bb####bb#cbb####bb#dddd",
"bb######bbbbccccccbbbb######bbbb######bbbbccccccbbbb######bbbb######bbbbccccccbbbb######bbbb######bbdddd",
".###..aaae.###..###.eaaaee###..###..###e.###..###.b###bbccceb###bb###becccee###bb###bb###eb###bb###bdddd",
"#...#a...#a...#a...##...##...a#...aa...##...##...##bbb#cbbb#cbbb#cbbb##bbb##bbbc#bbbccbbb##bbb##bbb#dddd",
"#...#a...#a...#a...##...##...a#...aa...##...##...##bbb#cbbb#cbbb#cbbb##bbb##bbbc#bbbccbbb##bbb##bbb#dddd",
"#...#a...#a...#a...##...##...a#...aa...##...##...##bbb#cbbb#cbbb#cbbb##bbb##bbbc#bbbccbbb##bbb##bbb#dddd",
"eaaae.aaae.###..###ee###ee###..###..aaae.###..###eecccebccceb###bb###ee###ee###bb###bbccceb###bb###edddd",
"#...#a...##...aa...#a...#a...##...#a...##...#a...##bbb#cbbb##bbbccbbb#cbbb#cbbb##bbb#cbbb##bbb#cbbb#dddd",
"#...#a...##...aa...#a...#a...##...#a...##...#a...##bbb#cbbb##bbbccbbb#cbbb#cbbb##bbb#cbbb##bbb#cbbb#dddd",
"#...#a...##...aa...#a...#a...##...#a...##...#a...##bbb#cbbb##bbbccbbb#cbbb#cbbb##bbb#cbbb##bbb#cbbb#dddd",
".###..aaae.###e.###..aaaee###..###..aaae.###..###.b###bbccceb###eb###bbcccee###bb###bbccceb###bb###bdddd",
"######################.############.############..######################b############b############bbdddd",
"#....#.####....#.###.#.#....#.###.#.#....#.###.#..#bbbb#b####bbbb#b###b#b#bbbb#b###b#b#bbbb#b###b#bbdddd",
"#.##.#.####.##.#..#..#.#.##.#..#..#.#.##.#..#..#..#b##b#b####b##b#bb#bb#b#b##b#bb#bb#b#b##b#bb#bb#bbdddd",
"#....#.####....#.#.#.#.#....#.#.#.#.#....#.#.#.#..#bbbb#b####bbbb#b#b#b#b#bbbb#b#b#b#b#bbbb#b#b#b#bbdddd",
"#.##.#.####.#.##.###.#.#.##.#.###.#.#.####.###.#..#b##b#b####b#b##b###b#b#b##b#b###b#b#b####b###b#bbdddd",
"#.##.#....#.##.#.###.#.#.##.#.###.#.#.####.###.#..#b##b#bbbb#b##b#b###b#b#b##b#b###b#b#b####b###b#bbdddd",
"######################.############.############..######################b############b############bbdddd",
"##########........................................##########bbbbbbbbbbbbbbbbbbbbbbbbbbbbbbbbbbbbbbbbdddd",
"##########........................................##########bbbbbbbbbbbbbbbbbbbbbbbbbbbbbbbbbbbbbbbbdddd",
"##########........................................##########bbbbbbbbbbbbbbbbbbbbbbbbbbbbbbbbbbbbbbbbdddd",
"##########........................................##########bbbbbbbbbbbbbbbbbbbbbbbbbbbbbbbbbbbbbbbbdddd",
"##########........................................##########bbbbbbbbbbbbbbbbbbbbbbbbbbbbbbbbbbbbbbbbdddd",
"##########........................................##########bbbbbbbbbbbbbbbbbbbbbbbbbbbbbbbbbbbbbbbbdddd",
"##########........................................##########bbbbbbbbbbbbbbbbbbbbbbbbbbbbbbbbbbbbbbbbdddd",
"##########........................................##########bbbbbbbbbbbbbbbbbbbbbbbbbbbbbbbbbbbbbbbbdddd",
"##########........................................##########bbbbbbbbbbbbbbbbbbbbbbbbbbbbbbbbbbbbbbbbdddd",
"##########........................................##########bbbbbbbbbbbbbbbbbbbbbbbbbbbbbbbbbbbbbbbbdddd",
"..................................................bbbbbbbbbbbbbbbbbbbbbbbbbbbbbbbbbbbbbbbbbbbbbbbbbbdddd",
"..................................................bbbbbbbbbbbbbbbbbbbbbbbbbbbbbbbbbbbbbbbbbbbbbbbbbbdddd"
};
